<svg width="30" height="30" viewBox="0 0 30 30" fill="none" xmlns="http://www.w3.org/2000/svg">
<path d="M27.7734 13.2949V5.12109C27.7734 4.96289 27.709 4.81641 27.6035 4.70508L23.0684 0.169922C22.957 0.0585938 22.8105 0 22.6523 0H8.20312C7.23633 0 6.44531 0.791016 6.44531 1.75781V3.27539H4.92188C3.95508 3.27539 3.16406 4.06641 3.16406 5.0332V12.498C2.73047 13.1543 2.47266 13.9336 2.47266 14.7773C2.47266 14.9238 2.47852 15.0703 2.49609 15.2168C1.18359 15.9375 0.351562 17.3145 0.351562 18.8438C0.351562 21.1172 2.20312 22.9688 4.48242 22.9688H10.7461L14.4961 29.7012C14.6016 29.8887 14.7949 30 15.0059 30C15.2168 30 15.416 29.8828 15.5156 29.7012L19.2656 22.9688H24.1289C27.1758 22.9688 29.6602 20.4902 29.6602 17.4434C29.6543 15.791 28.9277 14.3086 27.7734 13.2949ZM23.2383 1.99805L25.7754 4.53516H24.0645C23.6074 4.53516 23.2383 4.16602 23.2383 3.70898V1.99805ZM4.92188 4.44727H6.44531V10.6582C5.67188 10.6875 4.95117 10.9336 4.3418 11.332V5.0332C4.33594 4.71094 4.59961 4.44727 4.92188 4.44727ZM15.0059 28.207L11.6074 22.1016C11.6074 22.1016 11.6074 22.1016 11.6074 22.0957L11.1621 21.2988H12.873C13.1953 21.2988 13.459 21.0352 13.459 20.7129V15.4688H16.5645V20.7188C16.5645 21.041 16.8281 21.3047 17.1504 21.3047H18.8613L18.416 22.1016C18.416 22.1016 18.416 22.1016 18.416 22.1074L15.0059 28.207ZM24.123 21.7969H19.916L20.3555 21.0059C20.4551 20.8242 20.4551 20.6016 20.3496 20.4258C20.2441 20.25 20.0508 20.1387 19.8457 20.1387H17.7246V14.8828C17.7246 14.5605 17.4609 14.2969 17.1387 14.2969H12.8613C12.5391 14.2969 12.2754 14.5605 12.2754 14.8828V20.1328H10.1543C9.94922 20.1328 9.75586 20.2441 9.65039 20.4199C9.54492 20.6016 9.54492 20.8184 9.64453 21L10.084 21.791H4.48242C2.84766 21.7969 1.52344 20.4727 1.52344 18.8438C1.52344 17.6367 2.25 16.5586 3.36914 16.1074C3.63281 16.002 3.78516 15.7148 3.7207 15.4336C3.67383 15.2168 3.65039 15 3.65039 14.7832C3.65039 13.1543 4.97461 11.8301 6.60938 11.8301C6.70898 11.8301 6.81445 11.8359 6.92578 11.8477C7.19531 11.877 7.44727 11.7188 7.53516 11.4668C8.4082 9.08203 10.377 7.21289 12.8027 6.46289C13.1133 6.36914 13.2832 6.04102 13.1895 5.73047C13.0957 5.41992 12.7676 5.25 12.457 5.34375C10.5 5.95312 8.80078 7.19531 7.62305 8.83594V1.75781C7.62305 1.43555 7.88672 1.17188 8.20898 1.17188H22.0723V3.70898C22.0723 4.81055 22.9688 5.70703 24.0703 5.70703H26.6016V12.498C25.9043 12.1465 25.125 11.9414 24.2988 11.9121C23.4844 8.79492 21.1172 6.29883 18.0117 5.33203C17.7012 5.23828 17.373 5.4082 17.2793 5.71875C17.1855 6.0293 17.3555 6.35742 17.666 6.45117C20.5195 7.33594 22.6641 9.69727 23.2617 12.6211C23.3203 12.9082 23.5781 13.1074 23.8711 13.0898C23.9648 13.084 24.0469 13.084 24.123 13.084C26.5254 13.084 28.4824 15.0352 28.4824 17.4375C28.4824 19.8457 26.5312 21.7969 24.123 21.7969Z" fill="#2A456E"/>
<path d="M15.2344 4.92188C15.082 4.92188 14.9297 4.98633 14.8184 5.0918C14.707 5.19727 14.6484 5.35547 14.6484 5.50781C14.6484 5.66016 14.7129 5.8125 14.8184 5.92383C14.9238 6.03516 15.0762 6.09375 15.2344 6.09375C15.3867 6.09375 15.5391 6.0293 15.6504 5.92383C15.7617 5.8125 15.8203 5.66602 15.8203 5.50781C15.8203 5.34961 15.7559 5.20313 15.6504 5.0918C15.5391 4.98633 15.3867 4.92188 15.2344 4.92188Z" fill="#2A456E"/>
</svg>
