<svg width="70" height="70" viewBox="0 0 70 70" fill="none" xmlns="http://www.w3.org/2000/svg">
<path d="M50.1667 0H5.83333C5.19167 0 4.66667 0.525 4.66667 1.16667V4.66667H1.16667C0.525 4.66667 0 5.19167 0 5.83333V68.8333C0 69.475 0.525 70 1.16667 70H45.5C46.1417 70 46.6667 69.475 46.6667 68.8333V65.3333H50.1667C50.8083 65.3333 51.3333 64.8083 51.3333 64.1667V1.16667C51.3333 0.525 50.8083 0 50.1667 0ZM44.3333 67.6667H2.33333V7H44.3333V67.6667ZM49 63H46.6667V5.83333C46.6667 5.19167 46.1417 4.66667 45.5 4.66667H7V2.33333H49V63Z" fill="#2A456E"/>
<path d="M65.3334 4.78333V1.16667C65.3334 0.525 64.8084 0 64.1667 0H54.8334C54.1917 0 53.6667 0.525 53.6667 1.16667V61.8333C53.6667 62.0667 53.7396 62.2854 53.8563 62.475L58.5229 69.475C58.8875 70.0146 59.6021 70.1604 60.1417 69.7958C60.2729 69.7083 60.375 69.6062 60.4625 69.475L65.1292 62.475C65.2604 62.2854 65.3188 62.0521 65.3188 61.8333V7.21875C66.7188 7.71458 67.6521 9.02708 67.6521 10.5V22.1667H69.9854V10.5C70 7.72917 68.0459 5.3375 65.3334 4.78333ZM63 61.4833L59.5 66.7333L56 61.4833V32.6667H63V61.4833ZM63 30.3333H56V2.33333H63V30.3333Z" fill="#2A456E"/>
<path d="M35 10.5H11.6667V12.8333H35V10.5Z" fill="#2A456E"/>
<path d="M18.6667 19.8333H11.6667V22.1666H18.6667V19.8333Z" fill="#2A456E"/>
<path d="M33.8333 19.8333H21V22.1666H33.8333V19.8333Z" fill="#2A456E"/>
<path d="M16.3333 24.5H7V26.8333H16.3333V24.5Z" fill="#2A456E"/>
<path d="M30.3333 24.5H18.6666V26.8333H30.3333V24.5Z" fill="#2A456E"/>
<path d="M39.6667 29.1667H7V31.5H39.6667V29.1667Z" fill="#2A456E"/>
<path d="M14 33.8333H7V36.1666H14V33.8333Z" fill="#2A456E"/>
<path d="M39.6667 33.8333H16.3333V36.1666H39.6667V33.8333Z" fill="#2A456E"/>
<path d="M39.6667 38.5H7V40.8333H39.6667V38.5Z" fill="#2A456E"/>
<path d="M39.6666 19.8333H36.1666V22.1666H39.6666V19.8333Z" fill="#2A456E"/>
<path d="M39.6666 24.5H32.6666V26.8333H39.6666V24.5Z" fill="#2A456E"/>
<path d="M39.6666 63H25.6666V65.3333H39.6666V63Z" fill="#2A456E"/>
<path d="M30.3333 43.1667H11.6667V45.5H30.3333V43.1667Z" fill="#2A456E"/>
<path d="M39.6667 47.8333H7V50.1666H39.6667V47.8333Z" fill="#2A456E"/>
<path d="M14 52.5H7V54.8333H14V52.5Z" fill="#2A456E"/>
<path d="M39.6667 52.5H16.3333V54.8333H39.6667V52.5Z" fill="#2A456E"/>
<path d="M39.6666 43.1667H32.6666V45.5H39.6666V43.1667Z" fill="#2A456E"/>
</svg>
