<svg width="70" height="70" viewBox="0 0 70 70" fill="none" xmlns="http://www.w3.org/2000/svg">
<path d="M69.7666 9.80002L66.2666 5.13336C65.8437 4.62294 65.0854 4.55002 64.5604 4.97294C64.502 5.01669 64.4437 5.07502 64.4 5.13336L60.9 9.80002C60.7541 10.0042 60.6666 10.2521 60.6666 10.5V65.3334C60.6666 67.9146 62.752 70 65.3333 70C67.9145 70 70 67.9146 70 65.3334V10.5C70 10.2521 69.9125 10.0042 69.7666 9.80002ZM67.6666 65.3334C67.6666 66.6167 66.6166 67.6667 65.3333 67.6667C64.05 67.6667 63 66.6167 63 65.3334V63H67.6666V65.3334ZM67.6666 60.6667H63V58.3334H67.6666V60.6667ZM67.6666 56H63V14H67.6666V56ZM67.6666 11.6667H63V10.8938L65.3333 7.78752L67.6666 10.8938V11.6667Z" fill="#2A456E"/>
<path d="M57.1667 0H5.83333C5.19167 0 4.66667 0.525 4.66667 1.16667V21.1167C1.95417 21.6708 0 24.0625 0 26.8333V64.1667C0 67.3896 2.61042 70 5.83333 70H47.8333C48.1396 70 48.4458 69.8833 48.6646 69.6646L57.9979 60.3312C58.1 60.2292 58.1729 60.1125 58.2313 59.9958C58.2458 59.9667 58.2604 59.9229 58.275 59.8937C58.3042 59.7917 58.3333 59.6896 58.3333 59.5875C58.3333 59.5583 58.3479 59.5438 58.3479 59.5146V1.16667C58.3333 0.525 57.8229 0 57.1667 0ZM35 64.1667C35 66.1062 33.4396 67.6667 31.5 67.6667H5.83333C3.89375 67.6667 2.33333 66.1062 2.33333 64.1667V26.8333C2.33333 24.8937 3.89375 23.3333 5.83333 23.3333H31.5C33.4396 23.3333 35 24.8937 35 26.8333V64.1667ZM19.8333 14V21H11.6667V14H19.8333ZM11.6667 11.6667V7H19.8333V11.6667H11.6667ZM30.3333 14V21H22.1667V14H30.3333ZM22.1667 11.6667V7H30.3333V11.6667H22.1667ZM32.6667 21.1167V14H40.8333V30.3333H37.3333V26.8333C37.3333 24.0625 35.3792 21.6708 32.6667 21.1167ZM32.6667 11.6667V7H40.8333V11.6667H32.6667ZM49 66.0188V60.6667H54.3521L49 66.0188ZM56 58.3333H47.8333C47.1917 58.3333 46.6667 58.8583 46.6667 59.5V67.6667H36.1375C36.9104 66.6604 37.3333 65.4354 37.3333 64.1667V32.6667H52.5C53.1417 32.6667 53.6667 32.1417 53.6667 31.5V5.83333C53.6667 5.19167 53.1417 4.66667 52.5 4.66667H10.5C9.85833 4.66667 9.33333 5.19167 9.33333 5.83333V21H7V2.33333H56V58.3333ZM51.3333 14V30.3333H43.1667V14H51.3333ZM43.1667 11.6667V7H51.3333V11.6667H43.1667Z" fill="#2A456E"/>
<path d="M31.5 26.8333H5.83335C5.19169 26.8333 4.66669 27.3583 4.66669 28V35C4.66669 35.6416 5.19169 36.1666 5.83335 36.1666H31.5C32.1417 36.1666 32.6667 35.6416 32.6667 35V28C32.6667 27.3583 32.1417 26.8333 31.5 26.8333ZM30.3334 33.8333H7.00002V29.1666H30.3334V33.8333Z" fill="#2A456E"/>
<path d="M32.6667 47.8333H25.6667C25.025 47.8333 24.5 48.3583 24.5 49V63C24.5 63.6417 25.025 64.1667 25.6667 64.1667H32.6667C33.3083 64.1667 33.8333 63.6417 33.8333 63V49C33.8333 48.3583 33.3083 47.8333 32.6667 47.8333ZM31.5 61.8333H26.8333V50.1666H31.5V61.8333Z" fill="#2A456E"/>
<path d="M32.6667 38.5H25.6667C25.025 38.5 24.5 39.025 24.5 39.6667V44.3333C24.5 44.975 25.025 45.5 25.6667 45.5H32.6667C33.3083 45.5 33.8333 44.975 33.8333 44.3333V39.6667C33.8333 39.025 33.3083 38.5 32.6667 38.5ZM31.5 43.1667H26.8333V40.8333H31.5V43.1667Z" fill="#2A456E"/>
<path d="M22.1667 47.8333H15.1667C14.525 47.8333 14 48.3583 14 49V53.6666C14 54.3083 14.525 54.8333 15.1667 54.8333H22.1667C22.8083 54.8333 23.3333 54.3083 23.3333 53.6666V49C23.3333 48.3583 22.8083 47.8333 22.1667 47.8333ZM21 52.5H16.3333V50.1666H21V52.5Z" fill="#2A456E"/>
<path d="M22.1667 38.5H15.1667C14.525 38.5 14 39.025 14 39.6667V44.3333C14 44.975 14.525 45.5 15.1667 45.5H22.1667C22.8083 45.5 23.3333 44.975 23.3333 44.3333V39.6667C23.3333 39.025 22.8083 38.5 22.1667 38.5ZM21 43.1667H16.3333V40.8333H21V43.1667Z" fill="#2A456E"/>
<path d="M11.6667 47.8333H4.66667C4.025 47.8333 3.5 48.3583 3.5 49V53.6666C3.5 54.3083 4.025 54.8333 4.66667 54.8333H11.6667C12.3083 54.8333 12.8333 54.3083 12.8333 53.6666V49C12.8333 48.3583 12.3083 47.8333 11.6667 47.8333ZM10.5 52.5H5.83333V50.1666H10.5V52.5Z" fill="#2A456E"/>
<path d="M11.6667 38.5H4.66667C4.025 38.5 3.5 39.025 3.5 39.6667V44.3333C3.5 44.975 4.025 45.5 4.66667 45.5H11.6667C12.3083 45.5 12.8333 44.975 12.8333 44.3333V39.6667C12.8333 39.025 12.3083 38.5 11.6667 38.5ZM10.5 43.1667H5.83333V40.8333H10.5V43.1667Z" fill="#2A456E"/>
<path d="M22.1667 57.1667H15.1667C14.525 57.1667 14 57.6917 14 58.3334V63C14 63.6417 14.525 64.1667 15.1667 64.1667H22.1667C22.8083 64.1667 23.3333 63.6417 23.3333 63V58.3334C23.3333 57.6917 22.8083 57.1667 22.1667 57.1667ZM21 61.8334H16.3333V59.5H21V61.8334Z" fill="#2A456E"/>
<path d="M11.6667 57.1667H4.66667C4.025 57.1667 3.5 57.6917 3.5 58.3334V63C3.5 63.6417 4.025 64.1667 4.66667 64.1667H11.6667C12.3083 64.1667 12.8333 63.6417 12.8333 63V58.3334C12.8333 57.6917 12.3083 57.1667 11.6667 57.1667ZM10.5 61.8334H5.83333V59.5H10.5V61.8334Z" fill="#2A456E"/>
</svg>
